Coordinates
version=1
nRows=29
nColumns=24
inDegrees=yes

Units are S.I. units (second, meters, Newtons, ...)
Angles are in degrees.

endheader
time	pelvis_tilt	pelvis_list	pelvis_rotation	pelvis_tx	pelvis_ty	pelvis_tz	hip_flexion_r	hip_adduction_r	hip_rotation_r	knee_angle_r	ankle_angle_r	subtalar_angle_r	mtp_angle_r	hip_flexion_l	hip_adduction_l	hip_rotation_l	knee_angle_l	ankle_angle_l	subtalar_angle_l	mtp_angle_l	lumbar_extension	lumbar_bending	lumbar_rotation
      3.42000000	    -17.75069551	      9.99378278	     -7.62357301	     -2.25112024	     -0.04213698	     -0.27166500	     20.32705948	     -9.06525792	      3.16399189	    -63.93342205	    -34.26774047	    -23.67749838	    -18.02711926	     41.87802231	     11.87050709	      2.21648826	    -32.07471864	     19.43678846	      0.09831219	    -80.14898044	     14.58347356	     -8.82226811	      8.53477147
      3.42500000	    -17.87287597	      8.81051306	     -7.66431141	     -2.24422263	     -0.03947068	     -0.27066580	     21.32090142	     -7.03213872	      3.02444965	    -63.18735006	    -15.40067952	    -26.37994957	   -135.11121842	     41.13768821	     10.61663638	      2.32524216	    -32.02102291	     20.69912923	      1.33377494	    -81.88403371	     14.49013317	     -7.69787476	      8.08873376
      3.43000000	    -17.84612193	      8.79329945	     -7.65801648	     -2.23689921	     -0.03793285	     -0.27094542	     22.46314014	     -6.59116288	      3.52182575	    -64.25150744	    -14.20400747	    -27.65849370	   -134.84155933	     40.27477406	     10.67589722	      2.26080757	    -31.53343083	     21.15158545	      1.63407339	    -81.86892737	     14.48106299	     -7.62247613	      7.90605787
      3.43500000	    -17.86415112	      8.80790319	     -7.60612137	     -2.22956132	     -0.03639984	     -0.27125336	     23.65847586	     -6.20241834	      3.94622475	    -65.28425769	    -12.96103794	    -28.62797576	   -133.58826302	     39.41188397	     10.80129216	      2.31922004	    -30.94339242	     21.56674079	      1.81933253	    -82.22780181	     14.52821523	     -7.58775503	      7.69023174
      3.44000000	    -17.79203854	      8.72049728	     -7.52375498	     -2.22231360	     -0.03468272	     -0.27151456	     24.67992701	     -5.72849869	      4.31092561	    -66.10652087	    -11.69769139	    -29.52224697	   -133.51052544	     38.44249046	     10.84981623	      2.40212707	    -30.36857675	     21.92545458	      2.10377949	    -82.21747365	     14.43894968	     -7.48774041	      7.45486063
      3.44500000	    -17.76051161	      8.67880689	     -7.48364643	     -2.21504456	     -0.03298098	     -0.27178557	     25.76035220	     -5.29705201	      4.72802181	    -66.86567732	    -10.30505603	    -30.09063099	   -133.43752070	     37.47504603	     10.92296226	      2.47635130	    -29.68905188	     22.21063256	      2.22390246	    -82.25881429	     14.41933563	     -7.40205065	      7.24988419
      3.45000000	    -17.73414182	      8.60816134	     -7.40051486	     -2.20780695	     -0.03122082	     -0.27204557	     26.80807186	     -4.86627855	      5.05876322	    -67.50025406	     -8.90600874	    -30.51146430	   -133.42559820	     36.47686547	     10.99154473	      2.64939485	    -28.94968273	     22.43155917	      2.32856450	    -82.31704090	     14.39212733	     -7.30970529	      7.03465048
      3.45500000	    -17.70639742	      8.50928458	     -7.30073894	     -2.20059997	     -0.02941762	     -0.27229238	     27.82437690	     -4.43551852	      5.32837649	    -68.02209752	     -7.44451598	    -30.73489160	   -133.50956026	     35.44768699	     11.03914108	      2.87128774	    -28.15888074	     22.60784558	      2.40473601	    -82.38031712	     14.35632217	     -7.19905866	      6.80288470
      3.46000000	    -17.66282302	      8.43522762	     -7.19374140	     -2.19340811	     -0.02757200	     -0.27253672	     28.80938385	     -4.06422745	      5.56821277	    -68.44201976	     -5.89076784	    -30.77743488	   -133.81852985	     34.36098250	     11.12207426	      3.16839614	    -27.27558286	     22.70747214	      2.39881110	    -82.51048612	     14.30666745	     -7.12475936	      6.58755548
      3.46500000	    -17.62609032	      8.28706393	     -7.07932562	     -2.18623177	     -0.02565422	     -0.27279147	     29.74596240	     -3.63753605	      5.76243570	    -68.71115392	     -4.26307764	    -30.63156316	   -134.45992096	     33.24743860	     11.13585940	      3.53233602	    -26.34624287	     22.75419749	      2.33810100	    -82.66521103	     14.25169479	     -6.97330860	      6.36245182
      3.47000000	    -17.58886150	      8.04053739	     -6.90850510	     -2.17913812	     -0.02371748	     -0.27304482	     30.61618264	     -3.15559461	      5.85838399	    -68.80324914	     -2.60547655	    -30.44541501	   -136.13508079	     32.13818821	     11.06004988	      3.94118980	    -25.45497026	     22.84934443	      2.39328490	    -82.86508427	     14.16577154	     -6.75226325	      6.03635579
      3.47500000	    -17.62065079	      7.77474744	     -6.72868861	     -2.17209219	     -0.02190475	     -0.27328610	     31.55533826	     -2.67494542	      5.86960069	    -68.88159462	     -0.81409969	    -29.92276846	   -136.39200866	     31.10956558	     10.94281613	      4.32390400	    -24.56513888	     22.89272606	      2.44367756	    -82.86339799	     14.14876911	     -6.50162169	      5.69222816
      3.48000000	    -17.57897545	      7.57271007	     -6.57577269	     -2.16503809	     -0.01996604	     -0.27354726	     32.40538780	     -2.28876707	      5.92724472	    -68.84688392	      1.02959493	    -29.24401008	   -137.06720041	     29.92487323	     10.91815287	      4.95048919	    -23.50096220	     22.71980375	      2.19356136	    -82.84733022	     14.06635774	     -6.32265763	      5.44970563
      3.48500000	    -17.57551508	      7.22716500	     -6.36417047	     -2.15805847	     -0.01806966	     -0.27382178	     33.20608530	     -1.79231246	      5.88526630	    -68.59798235	      2.82640855	    -28.63013153	   -138.88301284	     28.81834388	     10.74037497	      5.55298931	    -22.54653288	     22.58866238	      2.12387927	    -82.47413319	     13.99116788	     -6.01506919	      5.07675907
      3.49000000	    -17.59997949	      6.92424244	     -6.15742133	     -2.15114420	     -0.01629906	     -0.27410810	     34.05741571	     -1.36327189	      5.80677418	    -68.36492654	      4.65481262	    -27.70173291	   -139.23465895	     27.75472187	     10.59202332	      6.16772794	    -21.57652107	     22.42435246	      1.95263867	    -82.41205234	     13.94748838	     -5.74510003	      4.75101707
      3.49500000	    -17.64053062	      6.55666028	     -5.89807172	     -2.14428949	     -0.01459609	     -0.27437085	     34.87049927	     -0.90150456	      5.65491378	    -68.00786944	      6.40608537	    -26.73056932	   -139.56445570	     26.74513470	     10.36740323	      6.75672224	    -20.68341419	     22.31869400	      1.93590204	    -82.33513157	     13.90290467	     -5.43542234	      4.30830302
      3.50000000	    -17.64345153	      6.22780289	     -5.66730210	     -2.13738620	     -0.01284714	     -0.27475701	     35.61764154	     -0.51384458	      5.52178479	    -67.52352431	      8.03294109	    -25.74270250	   -140.03788818	     25.63168545	     10.21065728	      7.59028609	    -19.65309754	     21.95588446	      1.49601150	    -82.13976214	     13.83206319	     -5.14127028	      3.98722851
      3.50500000	    -17.67601568	      5.86814734	     -5.39130730	     -2.13055841	     -0.01123739	     -0.27513212	     36.35975277	     -0.12419258	      5.33541202	    -66.93864936	      9.53585853	    -24.77399991	   -140.47639684	     24.60663515	     10.00468389	      8.34685905	    -18.72302333	     21.64170505	      1.20773043	    -81.81341257	     13.77895355	     -4.83660443	      3.57994254
      3.51000000	    -17.71902891	      5.51224791	     -5.09071392	     -2.12375051	     -0.00971432	     -0.27554003	     37.07949250	      0.23203246	      5.12384599	    -66.24961932	     10.89350592	    -23.83954823	   -140.83858598	     23.61657498	      9.79622585	      9.09697121	    -17.82429798	     21.28568910	      0.92712362	    -81.39532946	     13.73415614	     -4.54029709	      3.17139122
      3.51500000	    -17.76567228	      5.17397076	     -4.77685041	     -2.11698357	     -0.00828118	     -0.27594946	     37.78077642	      0.54833273	      4.90519562	    -65.47012684	     12.08117841	    -22.94594995	   -141.10476882	     22.66216394	      9.59193692	      9.79706980	    -16.96199501	     20.90533494	      0.66322761	    -80.95714074	     13.69434296	     -4.27081989	      2.72181346
      3.52000000	    -17.80751603	      4.91017811	     -4.50175903	     -2.11020191	     -0.00698993	     -0.27634084	     38.46511226	      0.79851090	      4.75218379	    -64.61291861	     13.21282879	    -22.11990180	   -141.56843364	     21.70227342	      9.45283526	     10.53069647	    -16.09813160	     20.05735293	      0.28596023	    -78.06919434	     13.66326200	     -4.06758778	      2.41499015
      3.52500000	    -17.86233357	      4.57387528	     -4.10170137	     -2.10348346	     -0.00574590	     -0.27682816	     39.10599634	      1.03109989	      4.44021877	    -63.63665740	     14.07469987	    -21.42883744	   -141.62631945	     20.81919174	      9.25062694	     11.19456473	    -15.32706645	     19.74226402	      0.09003112	    -77.99336804	     13.62087269	     -3.82638607	      1.89217840
      3.53000000	    -17.89130171	      4.31717458	     -3.74234352	     -2.09674178	     -0.00460552	     -0.27727658	     39.70740919	      1.19744890	      4.20604400	    -62.59956686	     14.89127411	    -20.76163281	   -141.68219799	     19.89900784	      9.11042316	     11.86623716	    -14.51754158	     19.33679520	     -0.22525221	    -77.79085017	     13.56627592	     -3.66110525	      1.48024736
      3.53500000	    -17.91515184	      4.08097072	     -3.37735507	     -2.08998270	     -0.00356974	     -0.27771867	     40.27137065	      1.32838150	      3.96329774	    -61.47116719	     15.59788052	    -20.21042961	   -141.71497429	     18.98068393	      8.98351280	     12.56087532	    -13.71850929	     18.88615546	     -0.58692731	    -77.38616210	     13.51035586	     -3.52144760	      1.11026512
      3.54000000	    -17.96536739	      3.87381988	     -2.95388610	     -2.08330118	     -0.00270220	     -0.27814827	     40.84266359	      1.39480293	      3.71202453	    -60.28808790	     16.26952775	    -19.66223731	   -141.75882697	     18.19375757	      8.87580118	     12.95872446	    -13.08159550	     18.60234070	     -0.59268932	    -77.15256075	     13.47159391	     -3.43832232	      0.65759950
      3.54500000	    -17.95529712	      3.67902839	     -2.61358007	     -2.07650953	     -0.00178904	     -0.27857901	     41.31047591	      1.48651359	      3.52590135	    -58.98689480	     16.69324379	    -19.26705699	   -141.75336522	     17.21627097	      8.77196785	     13.75216983	    -12.22335007	     17.95733519	     -1.20116297	    -76.44286125	     13.38410258	     -3.33636926	      0.32644940
      3.55000000	    -17.95528960	      3.47396850	     -2.19622964	     -2.06976489	     -0.00100727	     -0.27904124	     41.74981701	      1.52945068	      3.27914189	    -57.61318570	     17.08726273	    -18.88189185	   -141.71839247	     16.33823424	      8.65966191	     14.34186315	    -11.52048737	     17.42547307	     -1.49691019	    -75.51714253	     13.29587130	     -3.25307754	     -0.10512930
      3.55500000	    -18.04656703	      3.35212017	     -1.77239073	     -2.06308536	     -0.00049619	     -0.27953929	     42.29761002	      1.48347965	      3.08850449	    -56.24215667	     17.47791517	    -18.40140111	   -141.49849699	     15.60169547	      8.63722788	     14.86479170	    -10.88081770	     16.41643826	     -1.82778795	    -72.10302219	     13.30543753	     -3.25141748	     -0.50626805
      3.56000000	    -18.05174248	      3.16534134	     -1.36795273	     -2.05636760	      0.00006931	     -0.27986616	     42.68364230	      1.51821604	      2.89651121	    -54.72937645	     17.72942936	    -18.03659183	   -141.47285517	     14.82147472	      8.50148604	     15.10729928	    -10.32650545	     16.25146499	     -1.72831143	    -72.08408111	     13.21835666	     -3.20005654	     -0.87455927
